name analog
datacolumns 19
datarows 32
range 0.40900000000000003 0.4245
endheader
time	ground_force_vx	ground_force_vy	ground_force_vz	ground_force_px	ground_force_py	ground_force_pz	l_ground_force_vx	l_ground_force_vy	l_ground_force_vz	l_ground_force_px	l_ground_force_py	l_ground_force_pz	ground_torque_x	ground_torque_y	ground_torque_z	l_ground_torque_x	l_ground_torque_y	l_ground_torque_z
0.40900000000000003	-0.0	-0.0	-0.0	-7.2829813957214355	37.43476867675781	-413.0927429199219	8.520395278930664	-38.030303955078125	-407.0944213867188	-0.0	-0.0	-0.0	-0.0	-0.0	-0.0	87995.71875	20607.0	-1168.53076171875
0.40950000000000003	-0.0	-0.0	-0.0	-7.622626781463623	37.02132415771485	-411.6505432128906	8.992088317871094	-38.39185333251953	-407.3327941894531	-0.0	-0.0	-0.0	-0.0	-0.0	-0.0	87790.7265625	20905.478515625	-1080.6934814453125
0.41000000000000003	-0.0	-0.0	-0.0	-7.472421169281006	37.39900970458984	-412.27392578125	9.052477836608888	-38.335575103759766	-409.3481750488281	-0.0	-0.0	-0.0	-0.0	-0.0	-0.0	87861.109375	20745.43359375	-1081.979248046875
0.41050000000000003	-0.0	-0.0	-0.0	-7.5793776512146	37.13181686401367	-412.9665222167969	9.314632415771484	-38.50825500488281	-407.9508056640625	-0.0	-0.0	-0.0	-0.0	-0.0	-0.0	87824.6328125	20722.658203125	-941.6568603515624
0.41100000000000003	-0.0	-0.0	-0.0	-7.73272705078125	37.2816276550293	-411.3277893066406	9.463748931884766	-38.80517959594727	-408.2995300292969	-0.0	-0.0	-0.0	-0.0	-0.0	-0.0	87634.75	20831.337890625	-960.571044921875
0.41150000000000003	-0.0	-0.0	-0.0	-7.729356288909912	37.737422943115234	-412.4008483886719	9.694140434265137	-38.27151107788086	-407.4309997558594	-0.0	-0.0	-0.0	-0.0	-0.0	-0.0	87763.4609375	20883.466796875	-941.3674926757812
0.41200000000000003	-0.0	-0.0	-0.0	-8.17548656463623	37.34564208984375	-411.6688537597656	9.81138801574707	-37.97478103637695	-408.3956909179688	-0.0	-0.0	-0.0	-0.0	-0.0	-0.0	87864.0390625	21083.326171875	-1001.7542724609376
0.41250000000000003	-0.0	-0.0	-0.0	-8.433775901794434	37.25963973999024	-413.2329406738281	9.57728385925293	-38.15150451660156	-408.7310180664063	-0.0	-0.0	-0.0	-0.0	-0.0	-0.0	87786.8125	20895.96484375	-1023.2843017578124
0.41300000000000003	-0.0	-0.0	-0.0	-8.863598823547363	36.81388473510742	-413.2205200195313	9.697918891906738	-38.41656875610352	-407.80908203125	-0.0	-0.0	-0.0	-0.0	-0.0	-0.0	87644.9765625	21195.50390625	-1041.10205078125
0.41350000000000003	-0.0	-0.0	-0.0	-8.561293601989746	37.523902893066406	-412.8558044433594	9.197439193725586	-38.35672378540039	-407.4470825195313	-0.0	-0.0	-0.0	-0.0	-0.0	-0.0	87572.8671875	21128.19140625	-1198.1954345703125
0.41400000000000003	-0.0	-0.0	-0.0	-8.89504623413086	37.32245635986328	-413.10650634765625	8.994607925415039	-38.277957916259766	-408.6072692871094	-0.0	-0.0	-0.0	-0.0	-0.0	-0.0	87545.7734375	21115.1796875	-1170.8131103515625
0.41450000000000004	-0.0	-0.0	-0.0	-8.76872444152832	37.04398727416992	-414.2800903320313	9.137210845947266	-38.71945571899414	-409.3423156738281	-0.0	-0.0	-0.0	-0.0	-0.0	-0.0	87702.78125	21100.521484375	-1151.7203369140625
0.41500000000000004	-0.0	-0.0	-0.0	-8.83968734741211	37.4033203125	-414.8617858886719	9.260436058044434	-38.33456802368164	-407.5724487304688	-0.0	-0.0	-0.0	-0.0	-0.0	-0.0	87946.5625	21167.1796875	-1090.1710205078125
0.41550000000000004	-0.0	-0.0	-0.0	-8.052851676940918	37.79628372192383	-414.8620910644531	9.460582733154297	-38.12080001831055	-408.15826416015625	-0.0	-0.0	-0.0	-0.0	-0.0	-0.0	87892.5390625	21471.228515625	-1081.38330078125
0.41600000000000004	-0.0	-0.0	-0.0	-8.590681076049805	37.73839569091797	-415.5879821777344	9.729549407958984	-38.32882690429688	-408.6091003417969	-0.0	-0.0	-0.0	-0.0	-0.0	-0.0	87838.3125	21347.4296875	-941.552734375
0.4165	-0.0	-0.0	-0.0	-8.829508781433105	37.68021774291992	-414.6424865722656	9.875572204589844	-38.59123611450195	-409.2162780761719	-0.0	-0.0	-0.0	-0.0	-0.0	-0.0	87721.1328125	21458.634765625	-952.9256591796876
0.417	-0.0	-0.0	-0.0	-8.624421119689941	37.853660583496094	-414.8891906738281	10.206878662109377	-38.05385971069336	-408.3943786621094	-0.0	-0.0	-0.0	-0.0	-0.0	-0.0	87956.71875	21596.357421875	-992.6395874023438
0.4175	-0.0	-0.0	-0.0	-8.356767654418945	37.69786834716797	-414.28857421875	10.079288482666016	-38.36271667480469	-407.9221801757813	-0.0	-0.0	-0.0	-0.0	-0.0	-0.0	87594.921875	21387.47265625	-825.2335815429688
0.418	-0.0	-0.0	-0.0	-8.265485763549805	37.22544860839844	-412.7523193359375	9.928447723388672	-38.30059051513672	-407.9129638671875	-0.0	-0.0	-0.0	-0.0	-0.0	-0.0	87500.53125	21555.310546875	-912.6304931640624
0.4185	-0.0	-0.0	-0.0	-8.05612850189209	37.11114883422852	-411.431884765625	10.618751525878906	-38.00927734375	-407.4599609375	-0.0	-0.0	-0.0	-0.0	-0.0	-0.0	87311.0390625	21497.431640625	-882.3886108398438
0.419	-0.0	-0.0	-0.0	-8.413060188293457	37.13828659057617	-411.7931518554688	9.758186340332031	-38.33600234985352	-405.70550537109375	-0.0	-0.0	-0.0	-0.0	-0.0	-0.0	87281.6796875	21738.80078125	-813.36865234375
0.4195	-0.0	-0.0	-0.0	-8.622528076171875	37.3182373046875	-412.4124450683594	10.23061466217041	-38.27204132080078	-405.6977233886719	-0.0	-0.0	-0.0	-0.0	-0.0	-0.0	87081.78125	21572.890625	-932.3839111328124
0.42	-0.0	-0.0	-0.0	-9.221112251281738	37.16899490356445	-411.217041015625	10.055204391479492	-38.53507995605469	-405.4710388183594	-0.0	-0.0	-0.0	-0.0	-0.0	-0.0	87165.1796875	21833.69140625	-843.5574951171875
0.4205	-0.0	-0.0	-0.0	-9.190215110778809	36.98912048339844	-412.3009643554688	9.937498092651367	-38.59658050537109	-406.298583984375	-0.0	-0.0	-0.0	-0.0	-0.0	-0.0	87212.15625	21885.56640625	-753.3823852539062
0.421	-0.0	-0.0	-0.0	-9.367103576660156	36.92635726928711	-412.9888610839844	10.174556732177734	-38.1531867980957	-405.4649963378906	-0.0	-0.0	-0.0	-0.0	-0.0	-0.0	87296.1328125	22053.978515625	-824.5565795898438
0.4215	-0.0	-0.0	-0.0	-8.83315658569336	36.81217193603516	-411.8026123046875	10.234101295471191	-38.54047393798828	-406.8758239746094	-0.0	-0.0	-0.0	-0.0	-0.0	-0.0	87338.90625	22019.556640625	-813.7011108398438
0.422	-0.0	-0.0	-0.0	-8.918652534484863	36.632598876953125	-413.1044006347656	9.843780517578123	-37.97987747192383	-406.6411437988281	-0.0	-0.0	-0.0	-0.0	-0.0	-0.0	87461.5078125	21997.837890625	-783.6253662109375
0.4225	-0.0	-0.0	-0.0	-9.10286808013916	36.36407470703125	-413.22503662109375	9.697056770324709	-37.80316925048828	-406.2980651855469	-0.0	-0.0	-0.0	-0.0	-0.0	-0.0	87408.3046875	22124.0234375	-853.2408447265625
0.423	-0.0	-0.0	-0.0	-9.369134902954102	36.86655807495117	-413.694091796875	9.223170280456545	-37.20967864990234	-407.4491271972656	-0.0	-0.0	-0.0	-0.0	-0.0	-0.0	87750.828125	22020.873046875	-972.5303955078124
0.4235	-0.0	-0.0	-0.0	-9.128009796142578	37.0782470703125	-412.8709106445313	9.285482406616213	-37.50518798828125	-408.9712829589844	-0.0	-0.0	-0.0	-0.0	-0.0	-0.0	87704.1640625	21967.361328125	-952.593017578125
0.424	-0.0	-0.0	-0.0	-9.9318208694458	37.19850158691406	-411.3313293457031	8.60494613647461	-37.5076789855957	-408.2778015136719	-0.0	-0.0	-0.0	-0.0	-0.0	-0.0	87790.5703125	22199.669921875	-1101.381103515625
0.4245	-0.0	-0.0	-0.0	-10.052026748657228	37.16957092285156	-411.8107299804688	8.517329216003418	-37.536720275878906	-409.7976684570313	-0.0	-0.0	-0.0	-0.0	-0.0	-0.0	87793.265625	22332.19140625	-1101.0462646484375
